<svg width="15" height="15" viewBox="0 0 15 15" fill="none" xmlns="http://www.w3.org/2000/svg">
  <mask id="path-1-inside-1" fill="white">
    <path d="M10.1324 1.26119C10.2888 0.890452 10.7183 0.713636 11.0721 0.905283C12.1777 1.50413 13.1187 2.37347 13.804 3.43688C14.6215 4.7051 15.0373 6.19038 14.9974 7.69867C14.9574 9.20696 14.4634 10.6681 13.58 11.8913C12.6966 13.1144 11.4648 14.0427 10.0455 14.5548C8.62628 15.0669 7.08556 15.139 5.62467 14.7618C4.16377 14.3845 2.85064 13.5754 1.85681 12.4401C0.862984 11.3048 0.234679 9.89617 0.0539798 8.39821C-0.0975367 7.14217 0.0715591 5.8723 0.540063 4.70548C0.689996 4.33206 1.13343 4.19391 1.49054 4.37935V4.37935C1.84765 4.56479 1.98225 5.00358 1.84111 5.3804C1.50269 6.28389 1.38428 7.25886 1.50067 8.2237C1.64626 9.43062 2.15249 10.5656 2.95323 11.4803C3.75396 12.395 4.81197 13.0469 5.98902 13.3509C7.16608 13.6548 8.40745 13.5967 9.55096 13.1841C10.6945 12.7715 11.6869 12.0236 12.3987 11.0381C13.1105 10.0526 13.5085 8.87532 13.5407 7.66007C13.5729 6.44483 13.2378 5.24812 12.5792 4.2263C12.0527 3.40943 11.3391 2.7347 10.5017 2.25545C10.1525 2.05556 9.97593 1.63193 10.1324 1.26119V1.26119Z"></path>
  </mask>
  <path d="M10.1324 1.26119C10.2888 0.890452 10.7183 0.713636 11.0721 0.905283C12.1777 1.50413 13.1187 2.37347 13.804 3.43688C14.6215 4.7051 15.0373 6.19038 14.9974 7.69867C14.9574 9.20696 14.4634 10.6681 13.58 11.8913C12.6966 13.1144 11.4648 14.0427 10.0455 14.5548C8.62628 15.0669 7.08556 15.139 5.62467 14.7618C4.16377 14.3845 2.85064 13.5754 1.85681 12.4401C0.862984 11.3048 0.234679 9.89617 0.0539798 8.39821C-0.0975367 7.14217 0.0715591 5.8723 0.540063 4.70548C0.689996 4.33206 1.13343 4.19391 1.49054 4.37935V4.37935C1.84765 4.56479 1.98225 5.00358 1.84111 5.3804C1.50269 6.28389 1.38428 7.25886 1.50067 8.2237C1.64626 9.43062 2.15249 10.5656 2.95323 11.4803C3.75396 12.395 4.81197 13.0469 5.98902 13.3509C7.16608 13.6548 8.40745 13.5967 9.55096 13.1841C10.6945 12.7715 11.6869 12.0236 12.3987 11.0381C13.1105 10.0526 13.5085 8.87532 13.5407 7.66007C13.5729 6.44483 13.2378 5.24812 12.5792 4.2263C12.0527 3.40943 11.3391 2.7347 10.5017 2.25545C10.1525 2.05556 9.97593 1.63193 10.1324 1.26119V1.26119Z" stroke="black" stroke-width="3" mask="url(#path-1-inside-1)"></path>
  <path d="M2.14309 1.98682L8.14435 6.55854L6.53036 8.12421L2.14309 1.98682Z" fill="black"></path>
  <path d="M8.6 7.45002C8.6 8.08514 8.08513 8.60002 7.45 8.60002C6.81488 8.60002 6.3 8.08514 6.3 7.45002C6.3 6.81489 6.81488 6.30002 7.45 6.30002C8.08513 6.30002 8.6 6.81489 8.6 7.45002Z" fill="black"></path>
  <circle cx="7.55" cy="1.15" r="1.15" fill="black"></circle>
</svg>