<svg xmlns="http://www.w3.org/2000/svg" fill="none" viewBox="0 0 24 17" height="17" width="24">
<path stroke-width="0.2" stroke="black" fill="#21201F" d="M23.0528 9.0395C23.0532 8.59853 22.8904 8.17299 22.596 7.84474L22.5957 7.84449L18.6149 3.43714L18.6148 3.43704C18.4478 3.25262 18.2441 3.10512 18.0167 3.00398C17.7894 2.90284 17.5434 2.8503 17.2945 2.84971H17.2943H14.3608H14.2608V2.94971V12.6554V12.7554H14.3608H15.3087H15.4087V12.6554V4.02121H17.2701C17.3588 4.02223 17.4464 4.0413 17.5275 4.07728C17.6086 4.11324 17.6815 4.16534 17.7418 4.23039L21.7174 8.63717C21.8187 8.74963 21.8767 8.89437 21.8813 9.04563V13.0272C21.8762 13.1191 21.8375 13.2059 21.7724 13.271C21.7067 13.3367 21.619 13.3755 21.5262 13.3801L21.4311 13.3847V13.4799V14.4278V14.5278L21.5311 14.5278C21.9303 14.5278 22.3136 14.371 22.5982 14.0911C22.8829 13.8112 23.0461 13.4306 23.0528 13.0314H23.0528V13.0297V9.0395ZM23.0528 9.0395L22.9528 9.03942M23.0528 9.0395V9.03942H22.9528M22.9528 9.03942V13.0297M22.9528 9.03942C22.9531 8.62313 22.7995 8.2214 22.5215 7.91152L18.5407 3.50417C18.383 3.33007 18.1907 3.19082 17.9761 3.09534C17.7614 2.99987 17.5292 2.95027 17.2943 2.94971H14.4608H14.3608V3.04971V12.5554V12.6554H14.4608H15.2087H15.3087V12.5554V4.02121L22.9528 13.0297M22.9528 13.0297C22.9466 13.4027 22.7941 13.7583 22.5281 14.0198C22.286 14.2578 21.9676 14.4006 21.6311 14.4243V14.4278H21.5315M22.9528 13.0297L21.5315 14.4278M21.5311 14.4278V13.4799C21.6486 13.4742 21.7599 13.4249 21.8431 13.3417C21.9263 13.2585 21.9755 13.1473 21.9813 13.0297V9.04417C21.9764 8.8687 21.9092 8.70072 21.7918 8.57026L17.8157 4.16291C17.746 4.08767 17.6618 4.02742 17.5681 3.98586C17.4743 3.9443 17.3732 3.92231 17.2706 3.92121L21.5311 14.4278ZM21.5311 14.4278C21.5312 14.4278 21.5313 14.4278 21.5315 14.4278M21.5311 14.4278H21.5315"></path>
<path stroke-width="0.2" stroke="black" fill="#21201F" d="M2.36106 14.4427H2.46106V14.3427V13.3949V13.2949H2.36106H1.85446V1.77511H15.1045H15.2045V1.67511V0.727295V0.627295H15.1045H0.806641H0.706641V0.727295V14.3427V14.4427H0.806641H2.36106Z"></path>
<path stroke-width="0.2" stroke="black" fill="#21201F" d="M22.5546 8.17236V8.07236H22.4546H17.8008H17.7008V8.17236V9.12018V9.22018H17.8008H22.4546H22.5546V9.12018V8.17236Z"></path>
<path stroke-width="0.2" stroke="black" fill="#21201F" d="M4.87848 12.6793C5.08595 12.5407 5.32559 12.4591 5.57337 12.4417V12.4619L5.67339 12.4619C6.04903 12.4618 6.40957 12.6095 6.67726 12.8731C6.94477 13.1365 7.09808 13.4944 7.10409 13.8697C7.10394 14.1524 7.02 14.4287 6.86293 14.6638C6.70572 14.8991 6.48232 15.0825 6.2209 15.1907C5.95947 15.299 5.67179 15.3274 5.39426 15.2722C5.11672 15.2169 4.86174 15.0807 4.66165 14.8806C4.46156 14.6805 4.32533 14.4256 4.27012 14.148C4.21492 13.8705 4.24327 13.5828 4.35156 13.3214C4.45985 13.06 4.6432 12.8365 4.87848 12.6793ZM4.24081 16.0129C4.66485 16.2962 5.16339 16.4475 5.67337 16.4475C6.35725 16.4475 7.01309 16.1758 7.49666 15.6922C7.98023 15.2087 8.25191 14.5528 8.25191 13.8689C8.25191 13.3589 8.10065 12.8604 7.81732 12.4364C7.53398 12.0123 7.13126 11.6818 6.6601 11.4867C6.18893 11.2915 5.67048 11.2404 5.1703 11.3399C4.67011 11.4394 4.21065 11.685 3.85003 12.0456C3.48942 12.4062 3.24387 12.8657 3.14437 13.3659C3.04488 13.8661 3.09594 14.3845 3.2911 14.8557C3.48627 15.3269 3.81677 15.7296 4.24081 16.0129Z"></path>
<path stroke-width="0.2" stroke="black" fill="#21201F" d="M20.8535 13.8691V13.8689C20.8535 13.3589 20.7023 12.8604 20.4189 12.4364C20.1356 12.0123 19.7329 11.6818 19.2617 11.4867C18.7906 11.2915 18.272 11.2404 17.7719 11.3399C17.2717 11.4394 16.8123 11.685 16.4517 12.0456C16.091 12.4062 15.8454 12.8657 15.7459 13.3659C15.6464 13.8661 15.6975 14.3845 15.8927 14.8557C16.0878 15.3269 16.4183 15.7296 16.8424 16.0129C17.2664 16.2962 17.765 16.4475 18.2749 16.4475L18.2751 16.4475C18.9586 16.4462 19.6136 16.1741 20.0968 15.6908C20.5801 15.2076 20.8522 14.5525 20.8535 13.8691ZM18.1749 12.4417V12.4616L18.2746 12.4619C18.65 12.463 19.0101 12.6111 19.2776 12.8744C19.5448 13.1376 19.6985 13.4949 19.7057 13.8699C19.7055 14.1525 19.6216 14.4288 19.4646 14.6638C19.3073 14.8991 19.0839 15.0824 18.8225 15.1907C18.561 15.299 18.2734 15.3274 17.9958 15.2722C17.7183 15.2169 17.4634 15.0807 17.2633 14.8806C17.0632 14.6805 16.9269 14.4256 16.8717 14.148C16.8165 13.8705 16.8448 13.5828 16.9531 13.3214C17.0614 13.06 17.2448 12.8365 17.48 12.6793C17.6875 12.5407 17.9272 12.4591 18.1749 12.4417Z"></path>
<path stroke-width="0.2" stroke="black" fill="#21201F" d="M16.3659 13.3945V13.2945H16.2659H8.86816H8.76816V13.3945V14.3423V14.4423H8.86816H16.2659H16.3659V14.3423V13.3945Z"></path>
</svg>
